<svg width="190" height="157" viewBox="0 0 190 157" fill="none" xmlns="http://www.w3.org/2000/svg">
<path d="M50.5502 112.072H22.1996C-10.4037 98.3694 -0.00847129 56.3159 28.3422 56.3159C21.2545 2.44963 84.0985 -20.7034 108.669 30.8003C127.097 16.625 163.953 28.9103 161.59 62.4586C190.414 59.6235 200.336 102.15 167.261 112.072H138.437" stroke="#FAFBFD" stroke-width="3.95745"/>
<rect x="56.8113" y="66.2617" width="18.9005" height="18.9005" fill="#FBB900"/>
<rect x="75.7117" y="66.2617" width="18.9005" height="18.9005" fill="#E18F56"/>
<rect x="94.6121" y="66.2617" width="18.9005" height="18.9005" fill="#CB6276"/>
<rect x="113.513" y="66.2617" width="18.9005" height="18.9005" fill="#AF1280"/>
<rect x="56.8113" y="102.173" width="18.9005" height="18.9005" fill="#FBB900"/>
<rect x="75.7117" y="102.173" width="18.9005" height="18.9005" fill="#E18F56"/>
<rect x="94.6121" y="102.173" width="18.9005" height="18.9005" fill="#CB6276"/>
<rect x="113.513" y="102.173" width="18.9005" height="18.9005" fill="#AF1280"/>
<rect x="56.8113" y="138.083" width="18.9005" height="18.9005" fill="#FBB900"/>
<rect x="75.7117" y="138.083" width="18.9005" height="18.9005" fill="#E18F56"/>
<rect x="94.6121" y="138.083" width="18.9005" height="18.9005" fill="#CB6276"/>
<rect x="113.513" y="138.083" width="18.9005" height="18.9005" fill="#AF1280"/>
</svg>
